<svg width="21" height="20" viewBox="0 0 21 20" fill="none" xmlns="http://www.w3.org/2000/svg">
<path d="M16.125 5.99999H3.625V5.49999L14.625 4.61999V5.49999H16.125V3.99999C16.125 2.89999 15.234 2.12799 14.146 2.28299L4.105 3.71699C3.016 3.87299 2.125 4.89999 2.125 5.99999V16C2.125 16.5304 2.33571 17.0391 2.71079 17.4142C3.08586 17.7893 3.59457 18 4.125 18H16.125C16.6554 18 17.1641 17.7893 17.5392 17.4142C17.9143 17.0391 18.125 16.5304 18.125 16V7.99999C18.125 7.46955 17.9143 6.96085 17.5392 6.58577C17.1641 6.2107 16.6554 5.99999 16.125 5.99999ZM14.625 13.006C14.428 13.0059 14.2328 12.967 14.0508 12.8916C13.8688 12.8161 13.7034 12.7055 13.5641 12.5661C13.4248 12.4268 13.3144 12.2613 13.239 12.0792C13.1637 11.8972 13.1249 11.702 13.125 11.505C13.1251 11.3079 13.1639 11.1128 13.2394 10.9308C13.3149 10.7488 13.4255 10.5834 13.5648 10.4441C13.7042 10.3048 13.8697 10.1944 14.0517 10.119C14.2338 10.0437 14.429 10.0049 14.626 10.005C15.024 10.0051 15.4056 10.1633 15.6869 10.4448C15.9682 10.7263 16.1261 11.108 16.126 11.506C16.1259 11.9039 15.9677 12.2855 15.6862 12.5669C15.4047 12.8482 15.023 13.0061 14.625 13.006Z" fill="#006FFD"/>
</svg>
