<svg width="21" height="20" viewBox="0 0 21 20" fill="none" xmlns="http://www.w3.org/2000/svg">
<g clip-path="url(#clip0_3055_271)">
<mask id="mask0_3055_271" style="mask-type:alpha" maskUnits="userSpaceOnUse" x="0" y="0" width="21" height="20">
<path d="M12.082 10C12.082 10.6914 11.5234 11.25 10.832 11.25C10.1406 11.25 9.58203 10.6914 9.58203 10C9.58203 9.30859 10.1406 8.75 10.832 8.75C11.5234 8.75 12.082 9.30859 12.082 10ZM0.832031 10C0.832031 4.47656 5.30859 0 10.832 0C16.3555 0 20.832 4.47656 20.832 10C20.832 15.5234 16.3555 20 10.832 20C5.30859 20 0.832031 15.5234 0.832031 10ZM13.5313 11.9805L15.6992 6.34375C15.9922 5.55078 15.2461 4.83984 14.4883 5.13281L8.85156 7.30078C8.51953 7.42578 8.25781 7.6875 8.13281 8.01953L5.96484 13.6563C5.67187 14.4141 6.38281 15.1602 7.17578 14.8672L12.8125 12.6992C13.1445 12.5742 13.4063 12.3125 13.5313 11.9805V11.9805Z" fill="black"/>
</mask>
<g mask="url(#mask0_3055_271)">
<rect x="0.832031" y="-0.000976562" width="20" height="20" fill="#006FFD"/>
</g>
</g>
<defs>
<clipPath id="clip0_3055_271">
<rect width="20" height="20" fill="white" transform="translate(0.832031)"/>
</clipPath>
</defs>
</svg>
