<svg width="20" height="22" viewBox="0 0 20 22" fill="none" xmlns="http://www.w3.org/2000/svg">
<path d="M10.0098 16.043C9.22852 16.043 8.48828 15.9473 7.78906 15.7559C7.09375 15.5684 6.44727 15.3203 5.84961 15.0117C5.25586 14.6992 4.72266 14.3555 4.25 13.9805C3.77734 13.6055 3.37305 13.2305 3.03711 12.8555C2.70117 12.4766 2.44336 12.127 2.26367 11.8066C2.08789 11.4824 2 11.2207 2 11.0215C2 10.8223 2.08789 10.5625 2.26367 10.2422C2.44336 9.91797 2.70117 9.56836 3.03711 9.19336C3.37305 8.81445 3.77734 8.4375 4.25 8.0625C4.72656 7.6875 5.26172 7.3457 5.85547 7.03711C6.45312 6.72461 7.09961 6.47461 7.79492 6.28711C8.49414 6.0957 9.23242 6 10.0098 6C10.7949 6 11.5371 6.0957 12.2363 6.28711C12.9395 6.47461 13.5879 6.72461 14.1816 7.03711C14.7793 7.3457 15.3125 7.6875 15.7812 8.0625C16.2539 8.4375 16.6562 8.81445 16.9883 9.19336C17.3203 9.56836 17.5742 9.91797 17.75 10.2422C17.9258 10.5625 18.0137 10.8223 18.0137 11.0215C18.0137 11.2207 17.9258 11.4824 17.75 11.8066C17.5742 12.127 17.3203 12.4766 16.9883 12.8555C16.6562 13.2305 16.2539 13.6055 15.7812 13.9805C15.3125 14.3555 14.7812 14.6992 14.1875 15.0117C13.5938 15.3203 12.9453 15.5684 12.2422 15.7559C11.543 15.9473 10.7988 16.043 10.0098 16.043ZM10.0098 15.1172C10.6504 15.1172 11.2656 15.0371 11.8555 14.877C12.4492 14.7168 13.0059 14.5059 13.5254 14.2441C14.0449 13.9785 14.5156 13.6895 14.9375 13.377C15.3633 13.0645 15.7285 12.7559 16.0332 12.4512C16.3379 12.1426 16.5723 11.8613 16.7363 11.6074C16.9043 11.3535 16.9883 11.1582 16.9883 11.0215C16.9883 10.9043 16.9043 10.7246 16.7363 10.4824C16.5723 10.2402 16.3379 9.96484 16.0332 9.65625C15.7285 9.34375 15.3633 9.0293 14.9375 8.71289C14.5156 8.39648 14.0449 8.10352 13.5254 7.83398C13.0059 7.56055 12.4492 7.3418 11.8555 7.17773C11.2656 7.00977 10.6504 6.92578 10.0098 6.92578C9.36523 6.92578 8.74609 7.00977 8.15234 7.17773C7.55859 7.3418 7.00195 7.56055 6.48242 7.83398C5.96289 8.10352 5.49219 8.39648 5.07031 8.71289C4.64844 9.0293 4.2832 9.34375 3.97461 9.65625C3.66992 9.96484 3.43555 10.2402 3.27148 10.4824C3.10742 10.7246 3.02539 10.9043 3.02539 11.0215C3.02539 11.1582 3.10742 11.3535 3.27148 11.6074C3.43555 11.8613 3.66992 12.1426 3.97461 12.4512C4.2832 12.7559 4.64844 13.0645 5.07031 13.377C5.49219 13.6895 5.96289 13.9785 6.48242 14.2441C7.00195 14.5059 7.55859 14.7168 8.15234 14.877C8.74609 15.0371 9.36523 15.1172 10.0098 15.1172ZM10.0098 14.3027C9.54883 14.3027 9.11914 14.2168 8.7207 14.0449C8.32227 13.873 7.97266 13.6367 7.67188 13.3359C7.37109 13.0312 7.13477 12.6816 6.96289 12.2871C6.79492 11.8887 6.71094 11.4668 6.71094 11.0215C6.71094 10.5645 6.79492 10.1367 6.96289 9.73828C7.13477 9.33984 7.37109 8.99219 7.67188 8.69531C7.97266 8.39453 8.32227 8.16016 8.7207 7.99219C9.11914 7.82422 9.54883 7.74023 10.0098 7.74023C10.4629 7.74023 10.8887 7.82422 11.2871 7.99219C11.6855 8.16016 12.0352 8.39453 12.3359 8.69531C12.6367 8.99219 12.8711 9.33984 13.0391 9.73828C13.2109 10.1367 13.2969 10.5645 13.2969 11.0215C13.2969 11.4668 13.2109 11.8887 13.0391 12.2871C12.8711 12.6816 12.6367 13.0312 12.3359 13.3359C12.0352 13.6367 11.6855 13.873 11.2871 14.0449C10.8887 14.2168 10.4629 14.3027 10.0098 14.3027ZM10.0098 12.1113C10.3105 12.1113 10.5684 12.0039 10.7832 11.7891C10.998 11.5742 11.1055 11.3184 11.1055 11.0215C11.1055 10.7207 10.998 10.4648 10.7832 10.2539C10.5684 10.0391 10.3105 9.93164 10.0098 9.93164C9.70508 9.93164 9.44531 10.0391 9.23047 10.2539C9.01562 10.4648 8.9082 10.7207 8.9082 11.0215C8.9082 11.3184 9.01562 11.5742 9.23047 11.7891C9.44531 12.0039 9.70508 12.1113 10.0098 12.1113Z" fill="#71727A"/>
</svg>
