<svg width="16" height="16" viewBox="0 0 16 16" fill="none" xmlns="http://www.w3.org/2000/svg">
<path d="M10.5662 0.143066C12.1255 0.143066 12.8753 0.287861 13.6543 0.704508C14.3608 1.08234 14.9195 1.64107 15.2974 2.34756C15.714 3.12662 15.8588 3.87643 15.8588 5.43572V10.5647C15.8588 12.124 15.714 12.8738 15.2974 13.6529C14.9195 14.3594 14.3608 14.9181 13.6543 15.2959C12.8753 15.7126 12.1255 15.8574 10.5662 15.8574H5.43718C3.87789 15.8574 3.12808 15.7126 2.34902 15.2959C1.64253 14.9181 1.08381 14.3594 0.705973 13.6529C0.289326 12.8738 0.144531 12.124 0.144531 10.5647V5.43572C0.144531 3.87643 0.289326 3.12662 0.705973 2.34756C1.08381 1.64107 1.64253 1.08234 2.34902 0.704508C3.12808 0.287861 3.87789 0.143066 5.43718 0.143066H10.5662ZM10.5662 1.57164H5.43718C4.09356 1.57164 3.56654 1.67341 3.02273 1.96424C2.5652 2.20893 2.2104 2.56374 1.96571 3.02127C1.67487 3.56508 1.5731 4.09209 1.5731 5.43572V10.5647C1.5731 11.9083 1.67487 12.4353 1.96571 12.9792C2.2104 13.4367 2.5652 13.7915 3.02273 14.0362C3.56654 14.327 4.09356 14.4288 5.43718 14.4288H10.5662C11.9098 14.4288 12.4368 14.327 12.9806 14.0362C13.4381 13.7915 13.793 13.4367 14.0376 12.9792C14.3285 12.4353 14.4302 11.9083 14.4302 10.5647V5.43572C14.4302 4.09209 14.3285 3.56508 14.0376 3.02127C13.793 2.56374 13.4381 2.20893 12.9806 1.96424C12.4368 1.67341 11.9098 1.57164 10.5662 1.57164ZM7.28739 10.5002C7.68188 10.5002 8.00167 10.82 8.00167 11.2145C8.00167 11.609 7.68188 11.9288 7.28739 11.9288H4.43025C4.03576 11.9288 3.71596 11.609 3.71596 11.2145C3.71596 10.82 4.03576 10.5002 4.43025 10.5002H7.28739ZM11.5731 7.28592C11.9676 7.28592 12.2874 7.60572 12.2874 8.00021C12.2874 8.3947 11.9676 8.7145 11.5731 8.7145H4.43025C4.03576 8.7145 3.71596 8.3947 3.71596 8.00021C3.71596 7.60572 4.03576 7.28592 4.43025 7.28592H11.5731ZM11.5731 4.07164C11.9676 4.07164 12.2874 4.39143 12.2874 4.78592C12.2874 5.18041 11.9676 5.50021 11.5731 5.50021H4.43025C4.03576 5.50021 3.71596 5.18041 3.71596 4.78592C3.71596 4.39143 4.03576 4.07164 4.43025 4.07164H11.5731Z" fill="#006FFD"/>
</svg>
