<svg width="20" height="18" viewBox="0 0 20 18" fill="none" xmlns="http://www.w3.org/2000/svg">
<path d="M12.8968 10.4019C12.5676 10.6393 12.2767 10.9227 12.0345 11.2424C11.4257 11.0089 10.7041 10.8637 9.87909 10.8637C6.86885 10.8637 5.2362 12.7966 5.2362 13.7508C5.2362 13.8405 5.28722 13.865 5.38076 13.865H11.1602C11.1659 14.2476 11.2287 14.6167 11.3398 14.9661H5.76342C4.58144 14.9661 4.01172 14.6317 4.01172 13.8976C4.01172 12.2175 6.2311 9.76262 9.87909 9.76262C11.0391 9.76262 12.0537 10.0097 12.8968 10.4019ZM12.8042 5.9783C12.8042 7.63393 11.4862 9.01226 9.87909 9.01226C8.2804 9.01226 6.95391 7.64209 6.95391 5.99461C6.95391 4.34713 8.27189 3.02588 9.87909 3.02588C11.5032 3.02588 12.8042 4.32266 12.8042 5.9783ZM8.17839 5.99461C8.17839 7.063 8.97767 7.91936 9.87909 7.91936C10.7974 7.91936 11.5797 7.04675 11.5797 5.9783C11.5797 4.90988 10.8144 4.12692 9.87909 4.12692C8.95221 4.12692 8.17839 4.92619 8.17839 5.99461Z" fill="#006FFD"/>
<path d="M19.0061 13.759C19.0061 15.5533 17.433 17.0539 15.5792 17.0539C13.6999 17.0539 12.1523 15.5696 12.1523 13.759C12.1523 11.9565 13.6999 10.4722 15.5792 10.4722C17.4585 10.4722 19.0061 11.9565 19.0061 13.759ZM15.1371 12.1441V13.3348H13.887C13.6234 13.3348 13.4449 13.5061 13.4449 13.759C13.4449 14.0199 13.6234 14.183 13.887 14.183H15.1371V15.382C15.1371 15.6348 15.3156 15.8061 15.5792 15.8061C15.8428 15.8061 16.0214 15.6348 16.0214 15.382V14.183H17.2714C17.535 14.183 17.705 14.0199 17.705 13.759C17.705 13.5061 17.535 13.3348 17.2714 13.3348H16.0214V12.1441C16.0214 11.8831 15.8428 11.72 15.5792 11.72C15.3156 11.72 15.1371 11.8831 15.1371 12.1441Z" fill="#006FFD"/>
</svg>
