<svg width="27" height="14" viewBox="0 0 27 14" fill="none" xmlns="http://www.w3.org/2000/svg">
<path d="M25.8433 11.9541C25.8433 12.6966 25.3175 13.0348 24.2022 13.0348H19.5295C19.7275 12.7266 19.8203 12.358 19.8203 11.9541C19.8203 11.9432 19.8202 11.9325 19.8181 11.9211H24.5606C24.6483 11.9211 24.6961 11.8963 24.6961 11.8056C24.6961 10.8403 23.1664 8.88519 20.3461 8.88519C19.7194 8.88519 19.1559 8.98227 18.6625 9.14765C18.4152 8.84386 18.1229 8.55715 17.7893 8.29767C18.5204 7.96996 19.3797 7.77143 20.3461 7.77143C23.7719 7.77143 25.8433 10.2547 25.8433 11.9541ZM23.0947 3.94348C23.0947 5.61821 21.8519 7.01242 20.3461 7.01242C18.8483 7.01242 17.6055 5.62645 17.6055 3.95998C17.6055 2.29351 18.8404 0.957031 20.3461 0.957031C21.8678 0.957031 23.0947 2.26876 23.0947 3.94348ZM18.7528 3.95998C18.7528 5.04072 19.5016 5.90695 20.3461 5.90695C21.2065 5.90695 21.9395 5.02422 21.9395 3.94348C21.9395 2.86275 21.2305 2.07076 20.3461 2.07076C19.4777 2.07076 18.7528 2.87925 18.7528 3.95998Z" fill="#006FFD"/>
<path d="M18.8902 11.9541C18.8902 12.6966 18.3564 13.0348 17.2411 13.0348H12.5688C12.7664 12.7266 12.8592 12.358 12.8592 11.9541C12.8592 11.9432 12.8591 11.9325 12.857 11.9211H17.6075C17.6952 11.9211 17.743 11.8963 17.743 11.8056C17.743 10.8403 16.2054 8.88519 13.393 8.88519C12.7629 8.88519 12.1972 8.98273 11.7024 9.14882C11.4552 8.8449 11.1629 8.55806 10.8292 8.29851C11.5619 7.97028 12.4235 7.77143 13.393 7.77143C16.8108 7.77143 18.8902 10.2547 18.8902 11.9541ZM16.1336 3.94348C16.1336 5.61821 14.8908 7.01242 13.393 7.01242C11.8872 7.01242 10.6523 5.62645 10.6523 3.95998C10.6523 2.29351 11.8872 0.957031 13.393 0.957031C14.9147 0.957031 16.1336 2.26876 16.1336 3.94348ZM11.7996 3.95998C11.7996 5.04072 12.5405 5.90695 13.393 5.90695C14.2454 5.90695 14.9864 5.02422 14.9864 3.94348C14.9864 2.86275 14.2694 2.07076 13.393 2.07076C12.5166 2.07076 11.7996 2.87925 11.7996 3.95998Z" fill="#006FFD"/>
<path d="M6.43078 7.01242C7.92856 7.01242 9.17142 5.61821 9.17142 3.94348C9.17142 2.26876 7.95247 0.957031 6.43078 0.957031C4.92504 0.957031 3.69016 2.29351 3.69016 3.95998C3.69016 5.62645 4.93301 7.01242 6.43078 7.01242ZM6.43078 5.90695C5.58629 5.90695 4.8374 5.04072 4.8374 3.95998C4.8374 2.87925 5.5624 2.07076 6.43078 2.07076C7.30716 2.07076 8.0242 2.86275 8.0242 3.94348C8.0242 5.02422 7.29122 5.90695 6.43078 5.90695ZM2.57479 13.0348H10.2868C11.4022 13.0348 11.928 12.6966 11.928 11.9541C11.928 10.2547 9.85658 7.77143 6.43078 7.77143C3.005 7.77143 0.933594 10.2547 0.933594 11.9541C0.933594 12.6966 1.45941 13.0348 2.57479 13.0348ZM2.21628 11.9211C2.12864 11.9211 2.08084 11.8963 2.08084 11.8056C2.08084 10.8403 3.61049 8.88519 6.43078 8.88519C9.25112 8.88519 10.7808 10.8403 10.7808 11.8056C10.7808 11.8963 10.733 11.9211 10.6453 11.9211H2.21628Z" fill="#006FFD"/>
</svg>
