<svg width="21" height="20" viewBox="0 0 21 20" fill="none" xmlns="http://www.w3.org/2000/svg">
<path d="M1.45703 10.1871C1.45703 8.08936 1.45703 7.0405 1.93296 6.17101C2.4089 5.30152 3.2784 4.76188 5.01739 3.68262L6.85073 2.54479C8.68897 1.40393 9.60812 0.833496 10.6237 0.833496C11.6393 0.833496 12.5584 1.40393 14.3967 2.54479L16.23 3.68261C17.969 4.76188 18.8385 5.30152 19.3144 6.17101C19.7904 7.0405 19.7904 8.08936 19.7904 10.1871V11.5814C19.7904 15.1571 19.7904 16.9451 18.7164 18.0559C17.6425 19.1668 15.914 19.1668 12.457 19.1668H8.79036C5.33339 19.1668 3.60492 19.1668 2.53097 18.0559C1.45703 16.9451 1.45703 15.1571 1.45703 11.5814V10.1871Z" fill="#006FFD"/>
<path d="M8.125 13.3335C8.83365 14.384 9.6955 15.0002 10.625 15.0002C11.5545 15.0002 12.4163 14.384 13.125 13.3335" stroke="white" stroke-linecap="round"/>
</svg>
