<svg width="9" height="14" viewBox="0 0 9 14" fill="none" xmlns="http://www.w3.org/2000/svg">
<path d="M4.08579 13.7452C4.34673 13.9708 4.71345 14.0061 4.96734 13.7522L6.67404 12.0455C6.92086 11.7987 6.90675 11.4108 6.66699 11.171L5.87005 10.3741L7.0619 9.18223C7.30166 8.94247 7.2946 8.55456 7.05485 8.30775L5.98288 7.22872C7.46387 6.48116 8.30314 5.23288 8.30314 3.76599C8.30314 1.67847 6.61055 0 4.52304 0C2.42847 0 0.75 1.67142 0.75 3.76599C0.75 5.25404 1.59629 6.59399 2.9433 7.20755V12.3911C2.9433 12.5956 3.00677 12.8283 3.18308 12.9764L4.08579 13.7452ZM4.52304 12.7578L3.95885 12.1936V6.48116C2.6612 6.19908 1.75849 5.08478 1.75849 3.76599C1.75849 2.24267 2.99267 1.01554 4.52304 1.01554C6.05341 1.01554 7.28055 2.24267 7.28055 3.76599C7.28055 5.07068 6.37079 6.19908 5.06607 6.48822V7.76468L6.05341 8.75204L4.94618 9.84518V10.8889L5.66552 11.6012L4.52304 12.7578ZM4.52304 3.63199C5.03081 3.63199 5.43985 3.22295 5.43985 2.71518C5.43985 2.21446 5.03081 1.80542 4.52304 1.80542C4.01526 1.80542 3.61328 2.21446 3.61328 2.71518C3.61328 3.22295 4.02231 3.63199 4.52304 3.63199Z" fill="#006FFD"/>
</svg>
