<svg width="223" height="200" viewBox="0 0 223 200" fill="none" xmlns="http://www.w3.org/2000/svg">
<path d="M157.241 0H65.7547C29.9588 0 0.945312 29.0895 0.945312 64.9792V100.595C0.945312 136.475 29.9588 165.574 65.7547 165.574H116.971L129.424 196.392C131.261 200.935 137.535 201.284 139.871 196.978L156.836 165.584H157.241C193.028 165.584 222.051 136.494 222.051 100.604V64.9887C222.051 29.0895 193.037 0 157.241 0Z" fill="url(#paint0_linear_1136_12008)"/>
<g style="mix-blend-mode:screen" opacity="0.39">
<path d="M68.5147 5.60075C37.8338 5.60075 12.513 28.589 8.74497 58.3114C8.52831 59.9925 10.7985 60.7575 11.6369 59.2842C15.4802 52.5785 22.9503 41.6888 35.752 30.5535C48.9023 19.1066 62.2316 12.1459 70.2197 8.57582C71.7551 7.8958 71.2559 5.59131 69.5791 5.59131H68.5147V5.60075Z" fill="white"/>
</g>
<path d="M154.896 108.093C164.113 108.093 171.585 96.3728 171.585 81.9154C171.585 67.4579 164.113 55.7378 154.896 55.7378C145.679 55.7378 138.207 67.4579 138.207 81.9154C138.207 96.3728 145.679 108.093 154.896 108.093Z" fill="white"/>
<path d="M74.7787 108.093C83.9957 108.093 91.4676 96.3728 91.4676 81.9154C91.4676 67.4579 83.9957 55.7378 74.7787 55.7378C65.5617 55.7378 58.0898 67.4579 58.0898 81.9154C58.0898 96.3728 65.5617 108.093 74.7787 108.093Z" fill="white"/>
<defs>
<linearGradient id="paint0_linear_1136_12008" x1="0.945312" y1="13.5523" x2="231.123" y2="27.8564" gradientUnits="userSpaceOnUse">
<stop stop-color="#8FD8FF"/>
<stop offset="0.270327" stop-color="#BCB1FF"/>
<stop offset="0.48105" stop-color="#DF98FC"/>
<stop offset="0.802331" stop-color="#FF9EDB"/>
<stop offset="1" stop-color="#FFD998"/>
</linearGradient>
</defs>
</svg>
