<svg width="20" height="16" viewBox="0 0 20 16" fill="none" xmlns="http://www.w3.org/2000/svg">
<path d="M18.3529 1.96655L18.3551 1.96355C18.5848 1.65148 18.7151 1.40924 18.7631 1.23009C18.8047 1.07486 18.7783 0.986609 18.751 0.939992C18.7231 0.892345 18.6564 0.824112 18.4978 0.781603C18.3132 0.732151 18.0364 0.718571 17.6613 0.760527L17.6578 0.760925L17.6578 0.760912L2.58106 2.33833L2.58012 2.33843C1.86884 2.41148 1.56168 2.64546 1.49516 2.89372C1.43783 3.10765 1.47776 3.23058 1.57178 3.35447C1.69506 3.51691 1.91758 3.68233 2.2714 3.90183L2.27183 3.9021L6.22278 6.35868L6.22834 6.36213L6.22831 6.36217C6.4395 6.49734 6.55064 6.53688 6.62195 6.54603C6.67389 6.55271 6.74844 6.54955 6.90015 6.46908L6.91112 6.46327L6.92235 6.458L11.3424 4.38773C11.5137 4.30153 11.7114 4.27944 11.9014 4.34669C12.0816 4.41045 12.2022 4.53559 12.2747 4.64737L12.2819 4.65848L12.2886 4.66995C12.3644 4.80152 12.4174 4.98272 12.3722 5.18333C12.3273 5.38264 12.2018 5.52899 12.059 5.62335L8.08203 8.45733L8.07035 8.46565L8.05822 8.47329C7.91798 8.56156 7.88017 8.61921 7.8599 8.66606C7.83153 8.73162 7.8067 8.85152 7.8142 9.11816L18.3529 1.96655ZM18.3529 1.96655L9.50081 14.1779C9.50069 14.178 9.50056 14.1782 9.50044 14.1784C9.01227 14.8484 8.66322 14.9686 8.42584 14.905C8.21743 14.8492 8.12973 14.7529 8.0672 14.5949C7.98643 14.3909 7.9568 14.0946 7.94502 13.6548L7.94499 13.6538L7.81421 9.11848L18.3529 1.96655Z" stroke="#006FFD"/>
</svg>
