<svg width="19" height="25" viewBox="0 0 19 25" fill="none" xmlns="http://www.w3.org/2000/svg">
<path d="M18.4311 0.72736C17.813 0.227297 16.8748 0.579094 15.9398 1.51805C15.0909 2.3513 10.6529 6.79195 8.37098 9.50573C6.7634 11.234 5.54479 12.8819 5.3593 14.0256C5.24193 14.7488 5.40116 15.3452 5.68148 15.5717L6.58415 16.3019C6.86446 16.5286 7.48124 16.5592 8.16384 16.2932C9.24346 15.8723 10.5993 14.3359 11.9529 12.4021C14.1287 9.60291 17.542 4.33331 18.1791 3.32883C18.9019 2.21827 19.0492 1.22714 18.4311 0.72736Z" fill="#006FFD"/>
<path d="M4.49785 15.6029C3.393 15.4154 2.2223 15.8133 1.46752 16.7466C-0.342186 18.9843 -0.141702 22.7315 1.42734 24.5C1.42734 24.5 1.57261 24.2735 2.08899 23.8447C3.52069 22.6537 5.25028 22.2597 6.45024 20.7758C7.20497 19.8421 7.34864 18.6139 6.93436 17.5733L4.49785 15.6029Z" fill="#006FFD"/>
</svg>
