<svg width="21" height="20" viewBox="0 0 21 20" fill="none" xmlns="http://www.w3.org/2000/svg">
<mask id="mask0_3055_442" style="mask-type:alpha" maskUnits="userSpaceOnUse" x="2" y="0" width="17" height="20">
<path d="M15.3758 4.99988C15.3758 7.76124 13.1373 9.99977 10.376 9.99977C7.6147 9.99977 5.37621 7.76124 5.37621 4.99988C5.37621 2.23852 7.6147 0 10.376 0C13.1373 0 15.3758 2.23852 15.3758 4.99988Z" fill="#006FFD"/>
<path d="M2.04297 16.6667C2.04297 13.9054 4.28146 11.6669 7.04277 11.6669H13.7092C16.4705 11.6669 18.709 13.9054 18.709 16.6667V17.5001C18.709 18.8807 17.5897 20 16.2091 20H4.54287C3.16221 20 2.04297 18.8807 2.04297 17.5001V16.6667Z" fill="#006FFD"/>
</mask>
<g mask="url(#mask0_3055_442)">
<rect x="0.375" y="-0.000976562" width="19.9992" height="19.9995" fill="#006FFD"/>
</g>
</svg>
