<svg width="13" height="18" viewBox="0 0 13 18" fill="none" xmlns="http://www.w3.org/2000/svg">
<path d="M12.2658 7.5117V13.6177C12.2658 14.9517 11.5634 15.6186 10.1334 15.6186H2.6324C1.2108 15.6186 0.5 14.9517 0.5 13.6177V7.5117C0.5 6.17772 1.2108 5.51074 2.6324 5.51074H4.46376V6.66207H2.64913C2.04703 6.66207 1.70418 6.97175 1.70418 7.56724V13.5621C1.70418 14.1655 2.04703 14.4673 2.64913 14.4673H10.1167C10.7105 14.4673 11.0617 14.1655 11.0617 13.5621V7.56724C11.0617 6.97175 10.7105 6.66207 10.1167 6.66207H8.2937V5.51074H10.1334C11.5634 5.51074 12.2658 6.17772 12.2658 7.5117Z" fill="#1F2024"/>
<path d="M6.37731 10.6955C6.70344 10.6955 6.9794 10.4414 6.9794 10.1397V3.94635L6.92923 2.99352L7.28045 3.35877L8.20032 4.30365C8.309 4.41482 8.45951 4.4704 8.60173 4.4704C8.91948 4.4704 9.15358 4.26396 9.15358 3.97811C9.15358 3.8193 9.08673 3.70814 8.96968 3.60492L6.81215 1.64369C6.66164 1.50077 6.5362 1.45312 6.37731 1.45312C6.22679 1.45312 6.10136 1.50077 5.94247 1.64369L3.78498 3.60492C3.67627 3.70814 3.60938 3.8193 3.60938 3.97811C3.60938 4.26396 3.83516 4.4704 4.15292 4.4704C4.29508 4.4704 4.45397 4.41482 4.56268 4.30365L5.48254 3.35877L5.83376 2.99352L5.78359 3.94635V10.1397C5.78359 10.4414 6.05954 10.6955 6.37731 10.6955Z" fill="#1F2024"/>
</svg>
