<svg width="25" height="25" viewBox="0 0 25 25" fill="none" xmlns="http://www.w3.org/2000/svg">
<mask id="mask0_1142_19285" style="mask-type:alpha" maskUnits="userSpaceOnUse" x="3" y="3" width="19" height="19">
<path d="M21.765 11.0561L19.6413 10.4227C19.4944 9.91056 19.2925 9.41579 19.039 8.94707L20.0787 7.00274C20.1177 6.92935 20.132 6.84535 20.1194 6.76321C20.1069 6.68106 20.0681 6.60515 20.009 6.54675L18.4938 5.02675C18.4353 4.96764 18.3594 4.92894 18.2771 4.91639C18.1949 4.90384 18.1108 4.91811 18.0374 4.95709L16.1038 5.98942C15.63 5.72383 15.1282 5.51143 14.6077 5.35609L13.9737 3.25976C13.9469 3.18251 13.8962 3.11574 13.829 3.06908C13.7618 3.02242 13.6815 2.99827 13.5997 3.0001H11.4569C11.3746 3.00048 11.2946 3.0271 11.2284 3.07608C11.1623 3.12506 11.1135 3.19385 11.0892 3.27243L10.4553 5.36242C9.93038 5.51694 9.42433 5.72936 8.94648 5.99575L7.04462 4.96975C6.97116 4.93078 6.88707 4.91651 6.80485 4.92906C6.72262 4.94161 6.64664 4.98031 6.58817 5.03942L5.04767 6.54041C4.9885 6.59882 4.94976 6.67473 4.9372 6.75687C4.92464 6.83902 4.93892 6.92302 4.97793 6.99641L6.00494 8.8964C5.73871 9.37177 5.52609 9.87518 5.37098 10.3974L3.2726 11.0307C3.19394 11.055 3.12509 11.1037 3.07606 11.1698C3.02703 11.2358 3.00038 11.3158 3 11.3981V13.5387C3.00038 13.621 3.02703 13.7009 3.07606 13.767C3.12509 13.8331 3.19394 13.8818 3.2726 13.906L5.38366 14.5394C5.54047 15.0529 5.75305 15.5477 6.01762 16.015L4.97793 18.0037C4.93892 18.0771 4.92464 18.1611 4.9372 18.2432C4.94976 18.3254 4.9885 18.4013 5.04767 18.4597L6.56281 19.9733C6.62128 20.0325 6.69726 20.0712 6.77949 20.0837C6.86171 20.0963 6.9458 20.082 7.01926 20.043L8.97817 18.998C9.44157 19.2478 9.93038 19.4474 10.4363 19.5933L11.0702 21.7277C11.0945 21.8062 11.1433 21.875 11.2094 21.924C11.2755 21.973 11.3556 21.9996 11.4379 22H13.5807C13.663 21.9996 13.743 21.973 13.8092 21.924C13.8753 21.875 13.9241 21.8062 13.9484 21.7277L14.5823 19.587C15.0839 19.4403 15.5684 19.2407 16.0277 18.9917L17.9993 20.043C18.0728 20.082 18.1569 20.0963 18.2391 20.0837C18.3213 20.0712 18.3973 20.0325 18.4558 19.9733L19.9709 18.4597C20.0301 18.4013 20.0688 18.3254 20.0814 18.2432C20.094 18.1611 20.0797 18.0771 20.0407 18.0037L18.9883 16.0404C19.2402 15.5797 19.4421 15.0935 19.5905 14.59L21.727 13.9567C21.8056 13.9324 21.8745 13.8837 21.9235 13.8177C21.9725 13.7516 21.9992 13.6716 21.9996 13.5894V11.4297C22.0033 11.351 21.9828 11.273 21.9409 11.2062C21.899 11.1394 21.8376 11.087 21.765 11.0561ZM12.5283 15.9834C11.8387 15.9834 11.1646 15.7791 10.5912 15.3963C10.0178 15.0136 9.57089 14.4695 9.30698 13.8331C9.04308 13.1966 8.97403 12.4962 9.10857 11.8205C9.2431 11.1448 9.57518 10.5241 10.0628 10.037C10.5504 9.54982 11.1717 9.21807 11.8481 9.08366C12.5244 8.94926 13.2255 9.01824 13.8626 9.28189C14.4997 9.54553 15.0443 9.99199 15.4274 10.5648C15.8106 11.1377 16.0151 11.8111 16.0151 12.5C16.0151 13.4239 15.6477 14.3099 14.9938 14.9631C14.3399 15.6164 13.4531 15.9834 12.5283 15.9834Z" fill="#006FFD"/>
</mask>
<g mask="url(#mask0_1142_19285)">
<rect x="3" y="3" width="19" height="19" fill="#1F2024"/>
</g>
</svg>
