<svg width="24" height="24" viewBox="0 0 24 24" fill="none" xmlns="http://www.w3.org/2000/svg">
<circle cx="12" cy="12" r="12" fill="black"/>
<path d="M15.4528 9.77556C16.4817 10.5137 17.7421 10.948 19.1035 10.948V8.31899C18.8458 8.31905 18.5889 8.29209 18.3368 8.23849V10.3079C16.9756 10.3079 15.7153 9.87358 14.6861 9.13552V14.5005C14.6861 17.1843 12.5181 19.3599 9.84401 19.3599C8.84623 19.3599 7.91883 19.0571 7.14844 18.538C8.02771 19.4402 9.25393 19.9999 10.6105 19.9999C13.2848 19.9999 15.4529 17.8244 15.4529 15.1404V9.77556H15.4528V9.77556ZM16.3985 7.12325C15.8727 6.54674 15.5275 5.8017 15.4528 4.97804V4.63989H14.7262C14.9091 5.68677 15.5329 6.58117 16.3985 7.12325ZM8.83983 16.4785C8.54605 16.0919 8.38729 15.619 8.388 15.1327C8.388 13.9053 9.3796 12.91 10.603 12.91C10.831 12.9099 11.0576 12.945 11.2749 13.0142V10.3264C11.021 10.2915 10.7647 10.2767 10.5085 10.2821V12.3741C10.2911 12.3049 10.0644 12.2698 9.8363 12.27C8.61293 12.27 7.62138 13.2652 7.62138 14.4928C7.62138 15.3608 8.11702 16.1124 8.83983 16.4785Z" fill="#FF004F"/>
<path d="M14.6833 9.13547C15.7125 9.87353 16.9728 10.3078 18.334 10.3078V8.23844C17.5742 8.07601 16.9015 7.67752 16.3958 7.12325C15.5301 6.58111 14.9064 5.68672 14.7235 4.63989H12.8151V15.1403C12.8108 16.3645 11.8209 17.3557 10.6001 17.3557C9.88074 17.3557 9.24165 17.0115 8.83691 16.4785C8.11415 16.1124 7.61851 15.3608 7.61851 14.4929C7.61851 13.2653 8.61006 12.2701 9.83343 12.2701C10.0678 12.2701 10.2937 12.3067 10.5057 12.3742V10.2822C7.8785 10.3366 5.76562 12.4909 5.76562 15.1404C5.76562 16.463 6.29178 17.662 7.14573 18.538C7.91612 19.0571 8.84352 19.3599 9.84131 19.3599C12.5155 19.3599 14.6834 17.1843 14.6834 14.5005V9.13547H14.6833Z" fill="white"/>
<path d="M18.335 8.23853V7.67899C17.6498 7.68003 16.9781 7.48746 16.3968 7.12329C16.9114 7.68871 17.589 8.07858 18.335 8.23853ZM14.7245 4.63999C14.707 4.53994 14.6936 4.43923 14.6843 4.33814V4H12.0493V14.5005C12.0451 15.7245 11.0553 16.7157 9.83442 16.7157C9.476 16.7157 9.13759 16.6303 8.8379 16.4786C9.24264 17.0116 9.88173 17.3557 10.6011 17.3557C11.8217 17.3557 12.8118 16.3646 12.8161 15.1405V4.63999H14.7245ZM10.5068 10.2823V9.68659C10.2866 9.65639 10.0646 9.64124 9.84235 9.64135C7.16794 9.64129 5 11.8169 5 14.5005C5 16.183 5.85204 17.6658 7.14678 18.538C6.29283 17.662 5.76667 16.463 5.76667 15.1404C5.76667 12.491 7.87949 10.3367 10.5068 10.2823Z" fill="#00F2EA"/>
</svg>
